<svg xmlns="http://www.w3.org/2000/svg" viewBox="0 0 154.99 160.67"><defs><style>.cls-1{fill:#ec4e20;}</style></defs><title>Asset 5</title><g id="Layer_2" data-name="Layer 2"><g id="Layer_1-2" data-name="Layer 1"><path class="cls-1" d="M54.63,160.17A2.6,2.6,0,0,1,53,157.85q-1.46-13.79-2.88-27.57-1.2-11.45-2.4-22.9a4.06,4.06,0,0,0-.89-1.8l15.46-10.3c5.45-3.63,10.9-7.26,16.32-10.93A59.08,59.08,0,0,0,84,80.66l.35-.1.05.18.22.12h0c.06.3.33.41.53.57q5.12,4.07,10.24,8.12l19.43,15.31,15.95,12.6q8,6.32,16,12.62a30.43,30.43,0,0,0,4,3c-.92,1.53-1.93,1.95-3.83,1.55L120,128.9l-22-4.69a3.82,3.82,0,0,0-1.75,0L84,80.95c-1,2.78-1.93,5.33-2.87,7.87q-5,13.51-10,27-3.51,9.49-7,19c-2.66,7.21-5.31,14.43-8,21.62A15.57,15.57,0,0,1,54.63,160.17Z"/><path class="cls-1" d="M84.37,80.74l-.05-.18.13-.21q6.68-4.42,13.35-8.84,6-4,12.07-8.06l19.07-12.73c3.66-2.44,7.29-4.91,11-7.36q7-4.7,14.07-9.37a3,3,0,0,1,.5,4q-5,8.69-10,17.36l-10.34,17.9c-1.49,2.59-3,5.17-4.48,7.76-.29.51-.51,1.06-.77,1.59a1.7,1.7,0,0,0-.94-.13l-16.62-.64c-6.25-.25-12.5-.52-18.75-.76-2.65-.1-5.3-.16-8-.24h0Z"/><path class="cls-1" d="M54.63,160.17a15.57,15.57,0,0,0,1.54-3.73c2.7-7.2,5.35-14.41,8-21.62q3.5-9.49,7-19,5-13.51,10-27c.94-2.54,1.86-5.09,2.87-7.87l12.19,43.29a4.66,4.66,0,0,0-1.45,1L58.54,159.57C57.25,160.79,56,161,54.63,160.17Z"/><path class="cls-1" d="M84,80.66a59.08,59.08,0,0,1-5.38,3.69C73.16,88,67.71,91.64,62.26,95.27L46.8,105.57c-2.49-1.55-5.11-2.87-7.67-4.28C34.3,98.65,29.46,96,24.62,93.41L1.85,81a3,3,0,0,1-1.8-3.49,2,2,0,0,1,1-.1l16.8.63,22.47.89,22.29.89,18.4.74A18.5,18.5,0,0,0,84,80.66Z"/><path class="cls-1" d="M84,80.66a18.5,18.5,0,0,1-3-.07l-18.4-.74-22.29-.89-22.47-.89L1,77.42a2,2,0,0,0-1,.1c.21-1.69,1.56-2.24,2.86-2.82l21.26-9.47L44,56.45c1.16-.51,2.32-1,3.48-1.54a6.92,6.92,0,0,0,1.9-1.26c.45-.12.7.2,1,.44l13.95,11,14.1,11.11,5.46,4.3c-.07-.54-.25-.9-.13-1.27a1.85,1.85,0,0,0,.68-1q.85-2.34,1.72-4.67l2.43-6.53c.44-1.19,1-2.35,1.32-3.56.45-1.51,1.06-2.94,1.6-4.41.41-1.12.91-2.22,1.26-3.36s.86-2.28,1.26-3.43.89-2.22,1.26-3.36.85-2.35,1.29-3.51.91-2.45,1.37-3.67a7.7,7.7,0,0,1,1.2-2.48l.18.15c-.16.5-.31,1-.49,1.51L91.89,59.57q-3.72,10-7.42,20.07c-.09.23-.3.46,0,.71l-.13.21Z"/><path class="cls-1" d="M84.58,80.85c2.65.08,5.3.13,8,.24,6.25.24,12.5.52,18.75.76l16.62.64a1.7,1.7,0,0,1,.94.13c-.21,1.72.82,3,1.49,4.46,3.7,7.85,7.45,15.68,11.18,23.52q4.63,9.72,9.26,19.43a3.11,3.11,0,0,1,0,3,30.43,30.43,0,0,1-4-3q-8-6.29-16-12.62l-15.95-12.6L95.35,89.55q-5.13-4-10.24-8.12C84.91,81.26,84.64,81.15,84.58,80.85Z"/><path class="cls-1" d="M83.75,79.24c-.12.37.06.74.13,1.27l-5.46-4.3L64.33,65.1l-13.95-11c-.3-.24-.55-.56-1-.44,1-2.5,1.19-5.17,1.69-7.77,1.39-7.17,2.69-14.36,4-21.54s2.66-14.3,4-21.45A3.05,3.05,0,0,1,61.38.17c.09.4.16.81.28,1.21,4.47,15.89,8.91,31.8,13.43,47.68C78,59.12,80.55,69.27,83.75,79.24Z"/><path class="cls-1" d="M83.75,79.24c-3.2-10-5.79-20.12-8.66-30.19-4.52-15.88-9-31.78-13.43-47.68-.11-.4-.18-.8-.28-1.21a3,3,0,0,1,3.41,1.06L91.32,30.68l7.05,7.85c.24.26.51.49.76.73a7.7,7.7,0,0,0-1.2,2.48c-.46,1.22-.91,2.45-1.37,3.67s-.9,2.32-1.29,3.51-.86,2.23-1.26,3.36-.91,2.26-1.26,3.43S91.91,58,91.5,59.08c-.54,1.47-1.15,2.91-1.6,4.41-.36,1.21-.88,2.38-1.32,3.56l-2.43,6.53q-.87,2.33-1.72,4.67A1.85,1.85,0,0,1,83.75,79.24Z"/><path class="cls-1" d="M84.44,80.35c-.27-.25-.05-.48,0-.71q3.71-10,7.42-20.07l6.92-18.65c.18-.5.33-1,.49-1.51,1.74.6,3.46,0,5.16-.17,6.83-.85,13.65-1.77,20.47-2.66l19-2.5c2.52-.33,5-.68,7.56-1a2.66,2.66,0,0,1,2.48.9q-7,4.68-14.07,9.37c-3.66,2.44-7.3,4.91-11,7.36L109.86,63.45q-6,4-12.07,8.06Q91.12,75.94,84.44,80.35Z"/><path class="cls-1" d="M84.37,80.74l.22.12Z"/></g></g></svg>