<svg xmlns="http://www.w3.org/2000/svg" viewBox="0 0 147.52 151.71"><defs><style>.cls-1{fill:#2e2b28;}</style></defs><title>Asset 6</title><g id="Layer_2" data-name="Layer 2"><g id="Layer_1-2" data-name="Layer 1"><path class="cls-1" d="M6.47,128a2.46,2.46,0,0,1-.26-2.69q5.31-12,10.66-23.94l8.84-19.89a3.83,3.83,0,0,0,.12-1.9l17.53-1.13c6.18-.41,12.35-.8,18.53-1.25A55.85,55.85,0,0,0,68,76.71l.33.08,0,.17.12.2h0c-.09.27.07.49.16.72q2.27,5.75,4.56,11.49,4.34,10.86,8.69,21.71Q85.42,120,89,128.92t7.18,17.91A28.77,28.77,0,0,0,98,151.19c-1.48.82-2.5.69-3.86-.54L74.77,133.23,59,119a3.61,3.61,0,0,0-1.45-.81L68,77c-2.15,1.8-4.1,3.46-6.07,5.09L40.94,99.48q-7.35,6.12-14.69,12.25C20.67,116.38,15.1,121,9.49,125.66A14.72,14.72,0,0,1,6.47,128Z"/><path class="cls-1" d="M68.32,77l0-.17.2-.11,15.11-.94,13.69-.91L119,73.41l12.44-.86,15.95-1a2.88,2.88,0,0,1-1.49,3.53l-16.41,9.49-16.92,9.78c-2.44,1.41-4.89,2.82-7.33,4.24-.48.28-.92.62-1.38.94-.15-.3-.46-.4-.71-.55L89.83,90.58c-5-3.15-10-6.33-15-9.47-2.12-1.34-4.27-2.63-6.4-3.95h0Z"/><path class="cls-1" d="M6.47,128a14.72,14.72,0,0,0,3-2.33c5.61-4.62,11.19-9.28,16.77-13.93q7.35-6.12,14.69-12.25l20.94-17.4c2-1.64,3.92-3.29,6.07-5.09L57.5,118.2a4.4,4.4,0,0,0-1.66.13L10,129.35A2.79,2.79,0,0,1,6.47,128Z"/><path class="cls-1" d="M68,76.71a55.85,55.85,0,0,1-6.15.48c-6.17.44-12.35.84-18.53,1.25L25.83,79.57c-1.3-2.45-2.83-4.76-4.27-7.13C18.85,68,16.12,63.58,13.4,59.14Q7,48.7.6,38.24a2.87,2.87,0,0,1,.17-3.71,1.93,1.93,0,0,1,.83.37l13.47,8.45,18,11.33L50.88,65.94,65.6,75.23A17.49,17.49,0,0,0,68,76.71Z"/><path class="cls-1" d="M68,76.71a17.49,17.49,0,0,1-2.42-1.48L50.88,65.94,33.05,54.69l-18-11.33L1.6,34.9a1.93,1.93,0,0,0-.83-.37c1-1.29,2.33-1.1,3.67-1l21.88,2.28L46.71,38l3.58.38a6.54,6.54,0,0,0,2.15-.13c.43.11.48.49.61.83q3.11,7.8,6.23,15.6l6.3,15.75L68,76.55c.19-.47.22-.85.49-1.1a1.75,1.75,0,0,0,1-.49l3.61-3,5.07-4.2c.92-.76,1.9-1.47,2.76-2.29,1.08-1,2.26-1.91,3.39-2.86.87-.73,1.8-1.39,2.62-2.16s1.78-1.46,2.65-2.22,1.78-1.4,2.62-2.16,1.8-1.52,2.71-2.27l2.85-2.36A7.28,7.28,0,0,1,100,50l.08.2c-.37.34-.73.69-1.12,1l-14.48,12L68.92,76.12c-.18.15-.46.24-.36.57l-.2.11Z"/><path class="cls-1" d="M68.44,77.16c2.13,1.31,4.28,2.61,6.4,3.95,5,3.15,10,6.32,15,9.47l13.31,8.37c.25.16.56.26.71.55-1,1.31-.77,2.88-.89,4.36-.68,8.18-1.3,16.36-1.94,24.55q-.8,10.14-1.59,20.29a2.94,2.94,0,0,1-1.43,2.5,28.77,28.77,0,0,1-1.86-4.36q-3.61-8.94-7.18-17.91t-7.12-17.85q-4.34-10.86-8.69-21.71-2.29-5.74-4.56-11.49C68.51,77.65,68.35,77.43,68.44,77.16Z"/><path class="cls-1" d="M68.52,75.45c-.28.25-.3.63-.49,1.1l-2.44-6.1L59.28,54.7q-3.12-7.8-6.23-15.6c-.13-.34-.18-.72-.61-.83A41,41,0,0,0,57.5,32.7C62,27.48,66.48,22.21,71,17S79.89,6.5,84.35,1.26A2.89,2.89,0,0,1,87.52.12c-.12.37-.25.74-.34,1.12-3.84,15.13-7.71,30.25-11.5,45.39C73.27,56.23,70.6,65.77,68.52,75.45Z"/><path class="cls-1" d="M68.52,75.45c2.08-9.68,4.75-19.21,7.16-28.81,3.79-15.14,7.66-30.26,11.5-45.39.1-.38.23-.75.34-1.12A2.86,2.86,0,0,1,89.81,2.6q3.91,18.32,7.83,36.64c.69,3.25,1.38,6.51,2.07,9.76.07.32.18.64.28,1a7.28,7.28,0,0,0-2.15,1.47L95,53.79c-.91.75-1.84,1.48-2.71,2.27s-1.76,1.42-2.62,2.16S87.84,59.63,87,60.43s-1.75,1.44-2.62,2.16c-1.13.95-2.31,1.84-3.39,2.86-.87.82-1.84,1.53-2.76,2.29l-5.07,4.2-3.61,3A1.75,1.75,0,0,1,68.52,75.45Z"/><path class="cls-1" d="M68.56,76.68c-.1-.33.18-.42.36-.57L84.47,63.18l14.48-12c.39-.32.75-.67,1.12-1,1.14,1.32,2.81,1.67,4.31,2.3,6,2.52,12,5,18,7.48l16.72,6.91c2.22.92,4.45,1.82,6.65,2.76a2.52,2.52,0,0,1,1.6,1.91l-15.95,1L119,73.41,97.37,74.84l-13.69.91Z"/><path class="cls-1" d="M68.32,77l.12.2Z"/></g></g></svg>