<svg xmlns="http://www.w3.org/2000/svg" viewBox="0 0 789.82 771.59"><defs><style>.cls-1{fill:#ec4e20;}</style></defs><title>Asset 2</title><g id="Layer_2" data-name="Layer 2"><g id="Layer_1-2" data-name="Layer 1"><path class="cls-1" d="M163.23,713.85c-1.67-27.44,4.35-51.86,7.5-76.56,4.45-34.94,9-69.81,9.94-105.12.49-17.69-4.45-31.5-17.42-43.77A1043.91,1043.91,0,0,0,45.78,392.05c-11.47-8-22.47-16.51-31.38-27.49C-9.14,335.56-3.44,302,28.71,282.8c18.3-10.92,38.71-16.51,59.35-20.57,36.49-7.17,73.16-13.36,109.74-20.07a193,193,0,0,0,25.48-6.86c15.95-5.25,26.88-15.49,32.5-31.41,8.46-24,16.83-48,25.58-71.88,12.12-33.08,24.13-66.23,41.08-97.26,6.36-11.65,13.79-21.69,26.47-28.38,22.52-11.89,41.58-6,59.79,8,10.25,7.83,16.94,18.88,23.48,29.84,21.06,35.29,40.76,71.39,63,106,6.74,10.49,14.4,20.41,21,31,11,17.64,27.43,24.61,47.29,26.46,27.35,2.55,54.75,2.24,82.15,2.61,32.31.44,64.61.84,96.2,8.94a82.69,82.69,0,0,1,23.55,10c23.24,14.55,30.91,41.15,18.77,65.86A107.7,107.7,0,0,1,766,320.74c-27.16,29.24-54.39,58.43-81.34,87.87a396.14,396.14,0,0,0-34.83,43.58c-7.11,10.37-8.68,21.35-7,33.5,6.81,48.93,22,95.75,35.91,142.88,6.5,22,11.64,43.8,7.44,67.09-5.36,29.74-27.71,42.83-55.06,41.23a95,95,0,0,1-38.64-10.75c-29.56-15.46-60.88-26.8-91.6-39.54-12.45-5.16-24.38-11.39-36.6-17-6.44-3-13.11-5.4-19.72-8-15.86-6.17-30.5-4.1-44.42,5.82-44.68,31.84-93,58-139.12,87.5a113,113,0,0,1-34.11,15c-23,5.62-49.29-2.59-58.36-31.08A126.51,126.51,0,0,1,163.23,713.85Z"/></g></g></svg>