<svg xmlns="http://www.w3.org/2000/svg" viewBox="0 0 231.34 319.63"><defs><style>.cls-1{fill:#4e64e1;}</style></defs><title>Asset 4</title><g id="Layer_2" data-name="Layer 2"><g id="Layer_1-2" data-name="Layer 1"><path class="cls-1" d="M2.78,300.74c3.78-1.19,7.11-3.39,10.77-4.86,1.19-.48,1.25-1.54,1.41-2.55.56-3.46,1.1-6.92,1.72-10.85,2.46,2.62,4.7,4.89,6.8,7.28a4.61,4.61,0,0,0,5.18,1.71c3-.76,6.11-1,9.76-1.52-1.6,2.94-2.9,5.71-4.56,8.23a5.24,5.24,0,0,0-.1,6.35c1.56,2.52,2.72,5.29,4.25,8.36-3.9-.74-7.35-1.37-10.78-2.06A3.12,3.12,0,0,0,23.92,312c-2.35,2.6-5,5-7.7,7.67-.52-3.84-1.05-7.42-1.45-11a2.87,2.87,0,0,0-2-2.69c-3.4-1.32-6.28-3.75-9.88-4.68Zm26.56,6a2.13,2.13,0,0,0-.46-2c-1.75-2.34-1.81-4.63.05-7,.35-.43,1-1.16.6-1.55a2.17,2.17,0,0,0-1.89-.12c-3,1.2-4.9-.06-6.54-2.39a1.52,1.52,0,0,0-1.66-.82c.65,4.31-1.81,6.73-6,8.17,4.55,1.21,6.21,4.12,6.08,8.63Q23.47,304.06,29.34,306.79Z"/><path class="cls-1" d="M148,0l12.69,9.55Q170,16.63,179.4,23.73a3.41,3.41,0,0,0,3.54.59c12.33-4.15,24.69-8.21,37.28-12.38-1.09,3.25-2.13,6.41-3.2,9.56-3.09,9-6.12,18.09-9.35,27.07a4.57,4.57,0,0,0,.84,4.88C215.83,63.2,223.05,73,230.3,82.82c.34.46.6,1,1,1.7-10.87-.22-21.49-.44-32.11-.63-3-.05-6.48-.95-8.87.27s-3.71,4.56-5.46,7c-6.15,8.61-12.29,17.24-19,26.65-1-3.52-1.73-6.38-2.57-9.22-2.84-9.51-5.74-19-8.56-28.51A3.77,3.77,0,0,0,152,77.18c-11.66-3.62-23.27-7.36-34.89-11.09-.7-.22-1.55-.17-2.13-1.11q9.13-6.42,18.24-12.82,6.65-4.66,13.33-9.27a3.63,3.63,0,0,0,1.91-3.34C148.21,26.58,148.11,13.62,148,0Zm74.17,79.75c-.73-1.1-1.15-1.81-1.64-2.48-5.68-7.71-11.32-15.43-17.08-23.08a4.59,4.59,0,0,1-.81-4.89c3.27-9.18,6.35-18.43,9.48-27.67.23-.69.77-1.37.34-2.21-1.25.35-2.51.64-3.72,1-8.83,3-17.67,5.9-26.48,8.92a3.58,3.58,0,0,1-3.77-.63q-9.42-7.27-19-14.37c-2.17-1.61-4.17-3.52-6.86-4.85.1,10.71.12,21.14.36,31.56a4.56,4.56,0,0,1-2.31,4.42c-3.59,2.39-7.09,4.9-10.62,7.38-5,3.51-10,7-15,10.58a4.55,4.55,0,0,0,2.49,1.15c9.28,3,18.57,5.95,27.88,8.83a3.74,3.74,0,0,1,2.84,2.87c2.16,7.46,4.46,14.88,6.75,22.29.85,2.74,1.82,5.43,2.83,8.41.73-.93,1.24-1.51,1.68-2.13C175.17,97,180.84,89,186.42,81A3.68,3.68,0,0,1,190,79.18c5.25.22,10.51.23,15.77.32Z"/><path class="cls-1" d="M56.4,143.15c-6.4-3.29-13.17-6.71-19.87-10.25a3.58,3.58,0,0,0-3.78-.27c-6.16,3.06-12.42,5.91-18.63,8.86a3.9,3.9,0,0,1-2.47.6c1.19-5.54,2.32-11.06,3.57-16.55,1.78-7.86,1.81-7.84-3.84-13.73-3.51-3.66-7-7.35-10.44-11C.55,100.34-.18,100,0,99.3c.28-.89,1.18-.37,1.75-.44q10.13-1.1,20.28-2a4.58,4.58,0,0,0,4-2.65c3.74-6.47,7.78-12.77,11.48-18.77,2.07,4.66,4.57,10.27,7.06,15.89.66,1.49,1.33,3,1.89,4.52s2,1.91,3.47,2.19l20.23,3.83,2.12.43-10.35,9.38c-2.3,2.07-4.55,4.2-6.93,6.18a3.78,3.78,0,0,0-1.41,3.85C54.62,129.18,55.56,136.69,56.4,143.15Zm-38.14-9.09a.6.6,0,0,0-.14.13s0,.09,0,.14l.09-.27c5.15-1.52,9.72-4.34,14.56-6.53a3.4,3.4,0,0,1,3.59.09c4.13,2.5,8.34,4.88,12.54,7.27.54.31,1,1,1.88.5-.63-4.94-1.18-9.91-1.93-14.85a4.71,4.71,0,0,1,1.72-4.94c3.39-2.8,6.58-5.83,9.83-8.8.52-.48,1.41-.76,1.26-1.88-4.8-.93-9.6-2-14.45-2.73-2.47-.37-3.66-1.55-4.56-3.77-1.84-4.57-4-9-5.77-13.05-2.21,3.47-4.8,6.78-6.52,10.49s-4.12,5.82-8.36,5.47a14,14,0,0,0-2.57.23L9,102.71c4,4.28,7.66,8.2,11.38,12a3.57,3.57,0,0,1,1,3.65C20.38,123.61,18.82,128.74,18.26,134.06Z"/><path class="cls-1" d="M67,195c-5.82-1.11-11.14-2-16.39-3.18a4.2,4.2,0,0,0-4.44,1.49c-3.68,3.83-7.48,7.55-11.62,11.71-.68-5-1.5-9.52-1.85-14.08-.26-3.35-1.14-5.65-4.6-7.07-4.43-1.82-8.57-4.35-13.21-6.76,5.06-2.43,9.7-4.76,14.44-6.87a5,5,0,0,0,3.43-4.49c.62-5.27,1.59-10.5,2.46-16,4,4.27,7.9,8.29,11.66,12.4a3.54,3.54,0,0,0,3.58,1.33c5.49-.92,11-1.72,17-2.64-2.82,5.2-5.39,10.05-8.09,14.83a3.76,3.76,0,0,0,0,4.23C62,184.7,64.34,189.67,67,195Zm-41.9-17.74c3.54,1.83,6.49,3.41,9.5,4.87a3,3,0,0,1,1.85,2.78c.22,2.74.63,5.47,1,8.2.07.49.18,1.2.51,1.39.65.37,1-.37,1.43-.77,1.9-1.88,3.85-3.71,5.65-5.68a3.4,3.4,0,0,1,3.65-1.14c3.16.7,6.36,1.23,10.14,1.94-1.72-3.36-3.12-6.19-4.6-9a3.91,3.91,0,0,1,.05-4.32c1.64-2.68,3-5.5,4.85-8.83-3.41.53-6.14.83-8.81,1.42-2.41.53-4.22.21-5.85-1.88-1.75-2.24-3.9-4.18-6.22-6.61-.62,3.79-1.19,6.91-1.61,10.06a3.37,3.37,0,0,1-2.22,3.08C31.45,174.05,28.57,175.58,25.11,177.27Z"/><path class="cls-1" d="M115.17,191.32c4.41-2.13,8.22-4.13,12.16-5.79a3.79,3.79,0,0,0,2.56-3.42c.6-4.33,1.31-8.64,2-13.37,3.37,3.55,6.52,6.79,9.56,10.14a3.38,3.38,0,0,0,3.6,1.14c4.31-.8,8.67-1.37,13.47-2.11-1.94,3.54-3.55,6.92-5.58,10-1.82,2.8-1.86,5.16,0,8a60.08,60.08,0,0,1,4,7.78c.26.55,1,1.18.46,1.85s-1.31.09-1.94,0c-3.64-.62-7.29-1.23-10.89-2a3.1,3.1,0,0,0-3.38,1c-3.11,3.26-6.36,6.39-9.84,9.86-.64-4.8-1.3-9.12-1.73-13.47a3.47,3.47,0,0,0-2.09-3.18C123.56,195.69,119.61,193.61,115.17,191.32Zm34.76,8.53c-1.11-2.22-1.9-4.12-3-5.85a3.82,3.82,0,0,1,.09-4.53c1.08-1.69,1.93-3.53,3.08-5.69-2.58.38-4.63.54-6.6,1a3.41,3.41,0,0,1-3.85-1.25c-1.37-1.6-2.9-3.05-4.68-4.9-.41,2.44-.87,4.36-1,6.3a4,4,0,0,1-2.88,3.78c-1.8.71-3.5,1.68-5.66,2.75,2.15,1.1,3.84,2.14,5.66,2.84a4,4,0,0,1,2.74,3.9c.15,2,.5,3.95.82,6.37,1.91-1.9,3.51-3.34,4.91-5a3.2,3.2,0,0,1,3.62-1.1C145.27,199.08,147.39,199.37,149.93,199.85Z"/><path class="cls-1" d="M29.34,306.79q-5.89-2.73-9.81,3c.13-4.51-1.53-7.43-6.08-8.63,4.18-1.43,6.63-3.86,6-8.17a1.52,1.52,0,0,1,1.66.82c1.64,2.32,3.59,3.59,6.54,2.39a2.17,2.17,0,0,1,1.89.12c.4.39-.25,1.12-.6,1.55-1.87,2.33-1.8,4.61-.05,7A2.13,2.13,0,0,1,29.34,306.79Z"/><path class="cls-1" d="M222.14,79.75l-16.36-.25c-5.26-.09-10.52-.11-15.77-.32A3.68,3.68,0,0,0,186.42,81c-5.58,8-11.25,15.93-16.9,23.87-.44.62-.95,1.2-1.68,2.13-1-3-2-5.68-2.83-8.41-2.3-7.42-4.59-14.84-6.75-22.29a3.74,3.74,0,0,0-2.84-2.87c-9.31-2.88-18.59-5.86-27.88-8.83A4.55,4.55,0,0,1,125,63.48c5-3.54,10-7.07,15-10.58,3.53-2.48,7-5,10.62-7.38A4.56,4.56,0,0,0,153,41.1c-.24-10.42-.26-20.84-.36-31.56,2.69,1.33,4.69,3.23,6.86,4.85q9.56,7.09,19,14.37a3.58,3.58,0,0,0,3.77.63c8.81-3,17.65-6,26.48-8.92,1.21-.41,2.47-.69,3.72-1,.43.84-.11,1.52-.34,2.21-3.13,9.23-6.21,18.48-9.48,27.67a4.59,4.59,0,0,0,.81,4.89c5.76,7.65,11.4,15.37,17.08,23.08C221,77.94,221.41,78.65,222.14,79.75Z"/><path class="cls-1" d="M18.26,134.06c.55-5.32,2.11-10.45,3.16-15.68a3.57,3.57,0,0,0-1-3.65c-3.73-3.82-7.35-7.74-11.38-12l10.46-1.14a14,14,0,0,1,2.57-.23c4.24.34,6.59-1.67,8.36-5.47s4.32-7,6.52-10.49c1.8,4,3.92,8.48,5.77,13.05.89,2.22,2.09,3.4,4.56,3.77,4.85.72,9.65,1.8,14.45,2.73.15,1.12-.74,1.4-1.26,1.88-3.25,3-6.44,6-9.83,8.8a4.71,4.71,0,0,0-1.72,4.94c.75,4.94,1.3,9.9,1.93,14.85-.85.5-1.34-.2-1.88-.5-4.2-2.39-8.4-4.77-12.54-7.27a3.4,3.4,0,0,0-3.59-.09c-4.85,2.2-9.42,5-14.56,6.53Z"/><path class="cls-1" d="M25.11,177.27c3.46-1.68,6.33-3.22,9.32-4.48a3.37,3.37,0,0,0,2.22-3.08c.42-3.14,1-6.27,1.61-10.06,2.32,2.43,4.47,4.37,6.22,6.61,1.63,2.09,3.45,2.41,5.85,1.88,2.67-.59,5.4-.89,8.81-1.42-1.81,3.32-3.21,6.15-4.85,8.83a3.91,3.91,0,0,0-.05,4.32c1.48,2.78,2.88,5.6,4.6,9-3.77-.71-7-1.24-10.14-1.94A3.4,3.4,0,0,0,45.05,188c-1.8,2-3.75,3.8-5.65,5.68-.4.4-.77,1.14-1.43.77-.33-.19-.44-.9-.51-1.39-.37-2.73-.79-5.46-1-8.2a3,3,0,0,0-1.85-2.78C31.6,180.68,28.65,179.09,25.11,177.27Z"/><path class="cls-1" d="M149.93,199.85c-2.54-.47-4.66-.77-6.72-1.29a3.2,3.2,0,0,0-3.62,1.1c-1.4,1.61-3,3-4.91,5-.32-2.42-.66-4.39-.82-6.37a4,4,0,0,0-2.74-3.9c-1.82-.71-3.5-1.74-5.66-2.84,2.17-1.07,3.86-2,5.66-2.75A4,4,0,0,0,134,185c.15-1.94.6-3.85,1-6.3,1.78,1.85,3.32,3.3,4.68,4.9a3.41,3.41,0,0,0,3.85,1.25c2-.49,4-.64,6.6-1-1.16,2.16-2,4-3.08,5.69A3.82,3.82,0,0,0,147,194C148,195.73,148.82,197.62,149.93,199.85Z"/></g></g></svg>