<svg xmlns="http://www.w3.org/2000/svg" viewBox="0 0 586.59 599.34"><defs><style>.cls-1{fill:#2e2b28;}</style></defs><title>Asset 3</title><g id="Layer_2" data-name="Layer 2"><g id="Layer_1-2" data-name="Layer 1"><path class="cls-1" d="M25.5,465c5.48-20.17,15.77-36.3,24.06-53.32,11.72-24.08,23.47-48.1,32.77-73.3,4.66-12.62,4.47-23.78-1.89-35.78a793.84,793.84,0,0,0-61.15-98C13,196,7.13,187.21,3.39,177.14c-9.89-26.63,2.4-49.42,30.23-55.41,15.85-3.41,31.9-2.47,47.76-.36,28,3.73,56,8.2,83.94,12.28a146.76,146.76,0,0,0,20,1.26c12.77.1,23.14-4.61,31.06-14.71,11.94-15.22,23.82-30.48,35.94-45.55,16.79-20.88,33.52-41.83,53.29-60.05,7.42-6.84,15.21-12.26,26-14,19.12-3.08,31.4,5.84,41.13,20.3,5.48,8.14,7.6,17.73,9.65,27.22,6.57,30.55,12,61.36,19.54,91.69,2.3,9.2,5.4,18.21,7.57,27.44,3.62,15.38,13.76,24.41,27.62,30.58,19.08,8.5,38.89,15,58.54,21.9,23.17,8.18,46.34,16.34,67.12,29.88a62.88,62.88,0,0,1,14.54,12.92c13.19,16.14,12.24,37.18-2.52,52a81.9,81.9,0,0,1-19.31,14.14c-26.69,14.45-53.42,28.84-80,43.48a301.24,301.24,0,0,0-35.71,22.9c-7.65,5.74-11.45,13.27-13.19,22.43-7,36.91-7.5,74.33-8.94,111.67-.67,17.41-2.29,34.39-11,50.14-11.11,20.12-30.39,24.11-49.71,16.29a72.23,72.23,0,0,1-25.21-17.16c-17.53-18.34-37.33-34.14-56.35-50.8-7.71-6.75-14.79-14.14-22.22-21.16-3.92-3.7-8.13-7.08-12.26-10.54-9.92-8.31-21-10.38-33.42-6.63-39.95,12-81.1,19.1-121.53,29.13a85.9,85.9,0,0,1-28.22,2.48C39.8,519.37,22.84,507,23.25,484.32A96.21,96.21,0,0,1,25.5,465Z"/></g></g></svg>