<svg xmlns="http://www.w3.org/2000/svg" viewBox="0 0 2446.04 2529.43"><defs><style>.cls-1{fill:#ec4e20;}.cls-2{fill:#4e64e1;}.cls-3{fill:#2e2b28;}</style></defs><title>Asset 7</title><g id="Layer_2" data-name="Layer 2"><g id="Layer_1-2" data-name="Layer 1"><path class="cls-1" d="M81.76,902.26l2082.8-547.65L2137,62.56C2194.43-143.08,229,209.46,117.76,382.87,17.16,539.66,81.76,902.26,81.76,902.26Z"/><path class="cls-2" d="M73.34,903.66s2073-670.68,2115-542.95,70,383.51,70,383.51L61.34,1407.41Z"/><path class="cls-3" d="M61.34,1407.41S1712.79,624.33,2245.56,714.34c342.79,57.91,142.1,697.36,142.1,697.36L18.56,2013.1Z"/><path class="cls-1" d="M127.35,2456.73l2202.22-570.93,17.54-521.33c57.46-205.63-2207.5,457.58-2318.77,631C-72.27,2152.26,127.35,2456.73,127.35,2456.73Z"/><path class="cls-2" d="M134,2469.23a11.76,11.76,0,0,1,6.83-16.76c182-57.4,2142.65-672.53,2182.71-550.74,38.4,116.76-8.45,544.68-16.78,617.29a11.76,11.76,0,0,1-11.79,10.42L163.61,2511.58a11.76,11.76,0,0,1-10.28-6.22Z"/></g></g></svg>