<svg id="Layer_1" data-name="Layer 1" xmlns="http://www.w3.org/2000/svg" viewBox="0 0 235.42 130.97"><title>bikeLogo</title><path d="M1007.77,624.19c3.16,25.38,30,45,56.36,41.7,28-3.52,48.34-29.08,45-56.64-1.71-14.06-8-25.71-19.08-34.49-13.89-11-29.62-13.64-46.83-9.23l-8.16-19.45c5,0,9.46.08,13.93,0,3.24-.08,5.08-2,5.43-5.12a5.12,5.12,0,0,0-4.95-5.52c-7.74-.16-15.5-.2-23.24,0-3.44.11-5.42,3.43-4.5,6.79a32.12,32.12,0,0,0,1.53,3.83l9.89,23.57a99.94,99.94,0,0,0-8.2,6c-24.18,21.88-48.43,43.68-72.37,65.83-13.07,12.1-31.76,14.64-47.06,5.57a38.73,38.73,0,0,1,20.54-72,38.48,38.48,0,0,1,37,29.45c.72,3,1.07,6,1.66,9.49l11.57-10.53-7-17.64h26.38L1007.39,575H961.67L953,552.71c3.56,0,6.42.07,9.29,0,3.92-.11,6.17-2.22,6.11-5.57s-2.16-5.27-6-5.31q-15-.15-30,0c-3.6,0-5.91,2.41-5.88,5.49s2.43,5.24,6,5.37c2.86.1,5.72,0,8.78,0l5.29,13.66c-4.81-1.19-9.11-2.57-13.52-3.29-23.36-3.82-46.59,9.57-55.4,31.74a51.32,51.32,0,0,0,82.2,56.92q35.7-32.62,71.55-65.08c2-1.8,4.24-3.3,6.62-5.13.84,1.87,1.47,3.2,2,4.56q5.88,14,11.74,28c.34.81.67,1.62,1,2.41,1.61,3.33,4.35,4.58,7.26,3.32s4-4.15,2.64-7.53c-4.34-10.5-8.78-21-13.17-31.44-.45-1.08-.84-2.18-1.27-3.31,20.31-5.61,41.67,6.88,47.18,27.14,5.65,20.78-7,42.64-27.8,47.76-10.53,2.59-20.65,1.29-29.93-4.51-12.24-7.65-18.1-19.08-18.78-33.89Z" transform="translate(-874.07 -535.29)"/><path d="M1007.77,624.19,1019,614c.68,14.81,6.54,26.24,18.78,33.89,9.28,5.8,19.4,7.1,29.93,4.51,20.79-5.12,33.44-27,27.8-47.76-5.5-20.26-26.87-32.75-47.18-27.14.43,1.13.82,2.23,1.27,3.31,4.39,10.48,8.84,20.94,13.17,31.44,1.4,3.38.27,6.27-2.64,7.53s-5.65,0-7.26-3.32c-.38-.79-.71-1.6-1-2.41q-5.87-14-11.74-28c-.57-1.36-1.2-2.69-2-4.56-2.38,1.83-4.63,3.33-6.62,5.13q-35.81,32.5-71.55,65.08a51.32,51.32,0,0,1-82.2-56.92c8.81-22.17,32-35.56,55.4-31.74,4.41.72,8.71,2.1,13.52,3.29l-5.29-13.66c-3.07,0-5.93.08-8.78,0-3.59-.13-6-2.34-6-5.37s2.28-5.45,5.88-5.49q15-.17,30,0c3.82,0,5.93,2.09,6,5.31s-2.19,5.46-6.11,5.57c-2.86.08-5.73,0-9.29,0L961.67,575h45.73l-11.66,10.79H969.36l7,17.64L964.74,614c-.6-3.47-.94-6.52-1.66-9.49A38.81,38.81,0,0,0,888.17,603,38.89,38.89,0,0,0,905.53,647c15.29,9.08,34,6.53,47.06-5.57,23.94-22.15,48.19-44,72.37-65.83a99.94,99.94,0,0,1,8.2-6l-9.89-23.57a32.12,32.12,0,0,1-1.53-3.83c-.92-3.35,1.07-6.68,4.5-6.79,7.74-.24,15.5-.2,23.24,0a5.12,5.12,0,0,1,4.95,5.52c-.35,3.14-2.19,5-5.43,5.12-4.47.1-8.95,0-13.93,0l8.16,19.45c17.21-4.42,32.94-1.75,46.83,9.23,11.11,8.78,17.38,20.43,19.08,34.49,3.35,27.57-17,53.13-45,56.64C1037.77,669.2,1010.93,649.56,1007.77,624.19Z" transform="translate(-874.07 -535.29)"/></svg>